<svg width="20" height="17" viewBox="0 0 20 17" fill="none" xmlns="http://www.w3.org/2000/svg">
<path d="M18 0.48999H2C0.89 0.48999 0.00999999 1.37999 0.00999999 2.48999L0 14.49C0 15.6 0.89 16.49 2 16.49H18C19.11 16.49 20 15.6 20 14.49V2.48999C20 1.37999 19.11 0.48999 18 0.48999ZM17 14.49H3C2.45 14.49 2 14.04 2 13.49V8.48999H18V13.49C18 14.04 17.55 14.49 17 14.49ZM18 4.48999H2V3.48999C2 2.93999 2.45 2.48999 3 2.48999H17C17.55 2.48999 18 2.93999 18 3.48999V4.48999Z" fill="black" fill-opacity="0.54"/>
</svg>
